<svg xmlns="http://www.w3.org/2000/svg" xmlns:svg="http://www.w3.org/2000/svg" id="svg2" width="701.429" height="354.362" version="1.1"><metadata id="metadata7"/><g id="layer1" transform="translate(-20.714286,-70.615406)"><path style="fill:none;stroke:#000;stroke-width:10;stroke-linecap:butt;stroke-linejoin:miter;stroke-miterlimit:4;stroke-opacity:1;stroke-dasharray:none" id="path2985" d="m 25.714286,230.93361 c 11.442105,0.18947 26.500593,51.00831 34.285714,0 12.380952,-51.42857 25.714286,-51.42857 40,0 10.18024,100.43412 20.25963,185.43781 28.57143,0 5.35428,-73.95901 28.8945,-9.09858 77.14286,0 11.72168,4.39574 19.92417,-2.53259 27.85713,-5.71429 5.41805,-3.36733 35.07488,-11.80282 46.42858,2.14286 34.80188,42.74694 71.16681,35.34494 82.14286,0 22.20703,-103.63351 21.43135,-177.814312 44.39331,12.97848 31.52458,261.94034 46.52849,215.9926 47.74954,0 3.48214,-162.075984 13.42214,-238.5853064 47.14286,0 1.4104,16.45466 15.31653,102.01517 24.28572,0 11.69014,-132.96311 45.02091,-24.43722 68.57142,0 36.47813,37.85159 50.00677,33.31076 72.85715,0 28.05486,-45.55279 33.81529,-1.92783 50,0"/><path style="opacity:.5131456;fill:#d1f8fb;fill-opacity:1;stroke:#00fffc;stroke-width:4;stroke-linecap:round;stroke-linejoin:round;stroke-miterlimit:4;stroke-opacity:1;stroke-dasharray:none;stroke-dashoffset:0" id="path3755" d="m 229.30463,458.39249 c 0,32.91561 -26.68338,59.599 -59.599,59.599 -32.91562,0 -59.599,-26.68339 -59.599,-59.599 0,-32.91562 26.68338,-59.599 59.599,-59.599 32.91562,0 59.599,26.68338 59.599,59.599 z" transform="matrix(-0.33344267,-0.94277038,0.94277038,-0.33344267,-236.63761,515.80924)"/><rect style="fill:#000;stroke:#01fffc;stroke-width:4;stroke-linecap:round;stroke-linejoin:round;stroke-miterlimit:4;stroke-opacity:1;stroke-dasharray:none;stroke-dashoffset:0" id="rect3757" width="18.183" height="104.046" x="-250.494" y="29.002" ry="3.742" transform="matrix(-0.66341388,-0.74825265,0.74825265,-0.66341388,0,0)"/><flowRoot id="flowRoot3765" transform="translate(-40.406102,-24.243661)" xml:space="preserve" style="font-size:28px;font-style:normal;font-variant:normal;font-weight:400;font-stretch:normal;text-align:center;line-height:125%;letter-spacing:0;word-spacing:0;writing-mode:lr-tb;text-anchor:middle;fill:#000;fill-opacity:1;stroke:none;font-family:Cambria;-inkscape-font-specification:Cambria"><flowRegion id="flowRegion3767"><rect id="rect3769" width="324.259" height="110.107" x="144.452" y="295.758" style="font-size:28px"/></flowRegion><flowPara id="flowPara3771" style="font-weight:700;font-family:Arial;-inkscape-font-specification:Arial Bold">EQcorrscan</flowPara><flowPara id="flowPara3773" style="font-size:22px;font-style:italic;font-family:Arial;-inkscape-font-specification:Arial Italic">Correlation for earthquake detection in Python</flowPara></flowRoot><path id="path3775" d="m 261.14029,88.305433 c 4.6455,0.07691 10.75925,20.709407 13.92002,0 5.02667,-20.880033 10.44001,-20.880033 16.24001,0 4.13319,40.776297 8.22543,75.287837 11.60002,0 2.17384,-30.027383 11.73119,-3.694033 31.32005,0" style="fill:none;stroke:#000;stroke-width:4.06000519;stroke-linecap:butt;stroke-linejoin:miter;stroke-miterlimit:4;stroke-opacity:1;stroke-dasharray:none"/></g></svg>